<svg width="42" height="23" viewBox="0 0 42 23" fill="none" xmlns="http://www.w3.org/2000/svg">
<path d="M4.96602 14.2366L5.30659 20.8592C5.35971 21.8506 6.16584 22.6089 7.10945 22.553L37.8455 20.7598C38.7891 20.7039 39.5109 19.8554 39.4578 18.8672V18.2114L37.0081 19.2494L33.3899 19.0163L30.5716 19.6037L24.7412 18.8827L12.2806 17.7297L4.96289 14.2366H4.96602Z" fill="#3B69D1"/>
<path d="M38.1818 20.0668L39.0754 19.9487C39.4566 19.899 39.8316 19.7871 40.1659 19.5975C40.897 19.1873 41.4595 18.5502 41.7438 17.7515C41.7875 17.621 41.7907 17.4843 41.75 17.3568C41.775 17.3009 41.7938 17.2419 41.8032 17.1797C41.8313 16.9994 41.8438 16.7477 41.8438 16.5799C41.8438 15.0726 40.9877 13.8388 39.6972 13.2919L41.0689 11.71C41.1501 11.6168 41.1689 11.4894 41.1158 11.3775C41.0658 11.2656 40.9564 11.1972 40.8314 11.1972H39.0036L38.4818 1.85216C38.4255 0.860781 37.5725 0.102484 36.5789 0.158424L6.31158 1.95161C5.31486 2.00755 4.55247 2.85597 4.60871 3.84424L5.12426 13.093C3.82445 12.4559 0.15625 13.0868 0.15625 16.5488C0.15625 20.0109 3.29641 20.5516 5.5117 20.0699M40.1472 11.8219L39.1036 13.0246L39.0348 11.8219H40.1472ZM39.4504 19.2495L39.3567 17.5495H41.1501C40.8721 18.3296 40.2565 18.9387 39.4504 19.2495ZM41.1845 17.0865H39.3285L39.266 15.9894H39.3129C39.2973 15.9397 39.2785 15.89 39.2567 15.8434L39.1473 13.8948C39.1661 13.8792 39.1879 13.8699 39.2067 13.8513L39.2567 13.7922C40.4252 14.1962 41.2126 15.2498 41.2126 16.583C41.2126 16.7229 41.2033 16.9435 41.1814 17.0865H41.1845Z" fill="#3B69D1"/>
<path fill-rule="evenodd" clip-rule="evenodd" d="M36.5701 0.00315966C37.6501 -0.057645 38.5767 0.76646 38.6378 1.84328L39.1514 11.0417H40.8314C41.0149 11.0417 41.1813 11.1432 41.2578 11.3126C41.3368 11.4808 41.3076 11.6732 41.187 11.8117L39.9511 13.2369C41.191 13.8459 42 15.0863 42 16.5798C42 16.752 41.9873 17.0122 41.9576 17.203C41.9489 17.2606 41.9339 17.3151 41.9147 17.3666C41.9484 17.5103 41.9392 17.6597 41.892 17.8005L41.8911 17.8033C41.5934 18.6394 41.0047 19.3052 40.2427 19.7328C39.888 19.9337 39.4933 20.0508 39.0959 20.1026M41.596 17.701C41.5959 17.7014 41.5957 17.7018 41.5956 17.7023L41.7438 17.7514L41.5965 17.6995C41.5963 17.7 41.5962 17.7005 41.596 17.701ZM36.5878 0.31344C36.5877 0.313444 36.5878 0.313436 36.5878 0.31344L6.32085 2.1066C5.41003 2.15772 4.71332 2.93301 4.76467 3.83534L5.29503 13.3498L5.05518 13.2322C4.76136 13.0882 4.31693 13.0095 3.80667 13.0324C3.29905 13.0552 2.73933 13.1781 2.21992 13.4239C1.18778 13.9123 0.312453 14.885 0.312453 16.5487C0.312453 17.3904 0.503084 18.044 0.814422 18.5455C1.12569 19.047 1.5631 19.4053 2.0709 19.6481C3.09138 20.136 4.39194 20.1542 5.47831 19.918L5.54505 20.2216C4.41612 20.4671 3.03895 20.4558 1.93553 19.9282C1.38139 19.6633 0.8953 19.2674 0.548559 18.7088C0.201889 18.1503 0 17.4381 0 16.5487C0 14.7503 0.958776 13.6765 2.08569 13.1433C2.64581 12.8782 3.24685 12.7465 3.79258 12.722C4.22337 12.7026 4.628 12.7498 4.95464 12.8573L4.45271 3.8529M36.5701 0.00315966L6.30276 1.79634L36.5701 0.00315966ZM36.5878 0.31344C37.4948 0.262487 38.2743 0.954854 38.3258 1.86065C38.3258 1.86061 38.3258 1.8607 38.3258 1.86065M38.8695 11.6664H40.4883L38.9695 13.4168L38.8695 11.6664ZM39.2002 11.9772L39.2376 12.6322L39.806 11.9772H39.2002ZM39.2064 13.6102L39.308 13.6453C40.5396 14.0711 41.3688 15.1837 41.3688 16.5829C41.3688 16.7259 41.3594 16.9555 41.3358 17.1097L41.1845 17.0868V17.2417H39.1809L39.1036 15.8844L39.1024 15.8818L38.9869 13.8253L39.0473 13.7753C39.0574 13.7669 39.067 13.7602 39.0743 13.7552C39.0791 13.752 39.0852 13.7481 39.0889 13.7457L39.0915 13.744C39.093 13.743 39.0943 13.7422 39.0952 13.7415L39.2064 13.6102ZM39.4314 16.1447L39.4761 16.931H41.0418C41.0517 16.814 41.0564 16.6796 41.0564 16.5829C41.0564 15.3553 40.357 14.3838 39.3084 13.9767L39.411 15.8058C39.4308 15.851 39.4477 15.8974 39.462 15.9429L39.5254 16.1447H39.4314ZM39.1916 17.394H41.3713L41.2974 17.6013C41.0031 18.4268 40.3525 19.0682 39.5068 19.3942L39.3062 19.4716L39.1916 17.394ZM39.5217 17.7048L39.5941 19.0189C40.1909 18.7381 40.6564 18.2778 40.9187 17.7048H39.5217Z" fill="#3B69D1"/>
<path d="M11.4316 9.46645C11.4316 7.79758 12.7346 6.53271 14.4687 6.53271C16.2028 6.53271 17.5151 7.78515 17.5151 9.49753C17.5151 9.64049 17.5057 9.86114 17.4807 10.0041H13.3407C13.5063 10.5542 13.9469 10.9054 14.5218 10.9054C14.9874 10.9054 15.3717 10.7065 15.5498 10.4672H17.4495C17.0402 11.6201 15.8935 12.4002 14.4781 12.4002C12.7346 12.4002 11.4316 11.1384 11.4316 9.46645ZM13.3407 8.90705H15.6154C15.4498 8.36941 15.0311 8.02755 14.4656 8.02755C13.9 8.02755 13.5157 8.36941 13.3407 8.90705Z" fill="white"/>
<path d="M18.2932 10.3112V6.66577H20.0804V9.77355C20.0804 10.3236 20.4241 10.6748 20.9428 10.6748C21.5052 10.6748 21.8801 10.3112 21.8801 9.75179V6.66577H23.6705V10.1247C23.6705 10.3982 23.8236 10.5412 24.1017 10.5412H24.211V12.266H23.7236C22.93 12.266 22.3863 12.0142 22.1113 11.5294C21.6708 12.1013 21.074 12.3965 20.3335 12.3965C19.1087 12.3965 18.29 11.5729 18.29 10.3112H18.2932Z" fill="white"/>
<path d="M0.782227 16.5451C0.782227 14.8762 2.08516 13.6113 3.81927 13.6113C5.55339 13.6113 6.8657 14.8638 6.8657 16.5761C6.8657 16.7191 6.85632 16.9398 6.83133 17.0827H2.69132C2.85692 17.6328 3.29748 17.984 3.87239 17.984C4.33795 17.984 4.72227 17.7851 4.90036 17.5458H6.80008C6.39077 18.6988 5.24406 19.4788 3.82865 19.4788C2.08516 19.4788 0.782227 18.2171 0.782227 16.5451ZM2.69132 15.9857H4.96598C4.80038 15.448 4.38169 15.1062 3.81615 15.1062C3.25061 15.1062 2.86629 15.448 2.69132 15.9857Z" fill="white"/>
<path d="M17.3752 22.0297C15.6505 22.0297 14.3194 21.0477 14.0632 19.5901C14.0382 19.4534 14.0757 19.3166 14.1663 19.211C14.257 19.1053 14.3882 19.0463 14.5257 19.0463H15.0475C14.2632 18.4651 13.7695 17.511 13.7695 16.3922C13.7695 14.5431 15.1256 13.1477 16.9222 13.1477C17.3659 13.1477 17.7846 13.2378 18.1626 13.4119C18.247 13.3311 18.3626 13.2782 18.4907 13.2782H20.2811C20.5404 13.2782 20.7497 13.4865 20.7497 13.7444V18.7417C20.7497 20.7089 19.3937 22.0297 17.3752 22.0297ZM17.2878 15.7023C16.8566 15.7023 16.541 15.9913 16.541 16.3891C16.541 16.7869 16.8534 17.0884 17.2878 17.0884C17.7221 17.0884 18.022 16.7962 18.022 16.3891C18.022 15.982 17.7064 15.7023 17.2878 15.7023Z" fill="white"/>
<path d="M16.9272 13.6148C17.5552 13.6148 18.0864 13.823 18.4957 14.1742V13.7453H20.2861V18.7426C20.2861 20.4457 19.1269 21.5645 17.3803 21.5645C15.8992 21.5645 14.7525 20.7751 14.5307 19.5103H16.3742C16.5273 19.8304 16.9366 20.0386 17.3896 20.0386C18.0739 20.0386 18.4926 19.588 18.4926 18.8297V18.6214C18.0833 18.9726 17.5552 19.1808 16.9241 19.1808C15.3899 19.1808 14.2401 17.9843 14.2401 16.3901C14.2401 14.7958 15.3899 13.6117 16.9241 13.6117M17.2896 17.5555C17.9739 17.5555 18.4926 17.0489 18.4926 16.3901C18.4926 15.7312 17.9739 15.2371 17.2896 15.2371C16.6054 15.2371 16.0742 15.7436 16.0742 16.3901C16.0742 17.0365 16.5929 17.5555 17.2896 17.5555ZM16.9241 12.6794C14.8588 12.6794 13.3027 14.2737 13.3027 16.3901C13.3027 17.282 13.5777 18.0807 14.0495 18.7085C13.9589 18.7613 13.8776 18.8297 13.812 18.9105C13.6339 19.1218 13.5589 19.3984 13.6058 19.6688C13.9026 21.3594 15.418 22.4937 17.3771 22.4937C19.6393 22.4937 21.2203 20.9492 21.2203 18.7395V13.7422C21.2203 13.2263 20.8016 12.8099 20.2829 12.8099H18.4926C18.3614 12.8099 18.2364 12.8379 18.1208 12.8845C17.7489 12.7477 17.3459 12.6763 16.9241 12.6763V12.6794ZM17.2896 16.6231C17.224 16.6231 17.0116 16.6076 17.0116 16.3901C17.0116 16.2285 17.1553 16.1694 17.2896 16.1694C17.4115 16.1694 17.5552 16.2285 17.5552 16.3901C17.5552 16.5517 17.4177 16.6231 17.2896 16.6231Z" fill="#3B69D1"/>
<path d="M31.3774 22.0299C29.6526 22.0299 28.3216 21.0478 28.0654 19.5903L27.9685 19.0433H29.0465C28.2622 18.4622 27.7686 17.5081 27.7686 16.3893C27.7686 14.5402 29.1246 13.1448 30.9212 13.1448C31.3118 13.1448 31.6805 13.2131 32.021 13.3499V13.2784H34.7456V18.7419C34.7456 20.7091 33.3896 22.0299 31.3743 22.0299H31.3774ZM31.2899 15.7025C30.8587 15.7025 30.5431 15.9915 30.5431 16.3893C30.5431 16.7871 30.8556 17.0885 31.2899 17.0885C31.7242 17.0885 32.0242 16.7964 32.0242 16.3893C32.0242 15.9822 31.7086 15.7025 31.2899 15.7025Z" fill="white"/>
<path d="M30.9272 13.6144C31.5552 13.6144 32.0864 13.8226 32.4957 14.1738V13.7449H34.2829V18.7422C34.2829 20.4453 33.1237 21.5641 31.3803 21.5641C29.8992 21.5641 28.7525 20.7747 28.5307 19.5098H30.3742C30.5273 19.8299 30.9366 20.0382 31.3896 20.0382C32.0739 20.0382 32.4926 19.5875 32.4926 18.8292V18.621C32.0833 18.9722 31.5552 19.1804 30.9241 19.1804C29.3899 19.1804 28.2401 17.9839 28.2401 16.3896C28.2401 14.7953 29.3899 13.6113 30.9241 13.6113M31.2896 17.5551C31.9739 17.5551 32.4926 17.0485 32.4926 16.3896C32.4926 15.7308 31.9739 15.2367 31.2896 15.2367C30.6054 15.2367 30.0742 15.7432 30.0742 16.3896C30.0742 17.0361 30.5929 17.5551 31.2896 17.5551ZM30.9241 12.679C28.8588 12.679 27.3027 14.2732 27.3027 16.3896C27.3027 17.2194 27.5402 17.9715 27.9558 18.5775H27.4121L27.6027 19.6683C27.8995 21.359 29.4149 22.4933 31.374 22.4933C33.6362 22.4933 35.2141 20.9487 35.2141 18.7391V12.8095H31.8833C31.5771 12.7225 31.2553 12.679 30.9209 12.679H30.9241ZM31.2896 16.6227C31.224 16.6227 31.0116 16.6072 31.0116 16.3896C31.0116 16.228 31.1553 16.169 31.2896 16.169C31.4115 16.169 31.5552 16.228 31.5552 16.3896C31.5552 16.5512 31.4177 16.6227 31.2896 16.6227Z" fill="#3B69D1"/>
<path d="M41.2182 16.5801C41.2182 14.8677 39.9153 13.6152 38.1718 13.6152C36.4283 13.6152 35.1348 14.877 35.1348 16.549C35.1348 18.221 36.4377 19.4827 38.1812 19.4827C39.5935 19.4827 40.7433 18.7027 41.1526 17.5497H39.2529C39.0779 17.7921 38.6905 17.9879 38.2249 17.9879C37.65 17.9879 37.2095 17.6367 37.0439 17.0866H41.1839C41.2057 16.9437 41.2182 16.723 41.2182 16.5801ZM37.0439 15.9865C37.2188 15.4488 37.6281 15.107 38.1687 15.107C38.7092 15.107 39.1529 15.4488 39.3185 15.9865H37.0439Z" fill="white"/>
<path d="M37.5337 9.36618C37.5337 7.6538 36.2307 6.40137 34.4873 6.40137C32.7438 6.40137 31.4502 7.66312 31.4502 9.33511C31.4502 9.77019 31.5408 10.1773 31.7033 10.544H30.919C30.6441 10.544 30.5003 10.4011 30.5003 10.1276V8.63275C30.5003 7.37099 29.6505 6.535 28.3788 6.535C27.7383 6.535 27.1852 6.74322 26.754 7.15034V6.66553H24.9668V12.2657H26.754V9.24498C26.754 8.6514 27.1633 8.25671 27.782 8.25671C28.3444 8.25671 28.71 8.64207 28.71 9.22323V10.5192C28.71 11.6846 29.3286 12.2657 30.5441 12.2657H34.4966C35.9089 12.2657 37.0587 11.4857 37.4681 10.3327H35.5683C35.3934 10.5751 35.0059 10.7709 34.5404 10.7709C33.9655 10.7709 33.5249 10.4197 33.3593 9.86964H37.4993C37.5212 9.72669 37.5337 9.50603 37.5337 9.36308V9.36618ZM33.3593 8.7726C33.5343 8.23495 33.9436 7.8931 34.4841 7.8931C35.0247 7.8931 35.4684 8.23495 35.634 8.7726H33.3593Z" fill="white"/>
<path d="M38.1585 11.8186L37.3398 13.0741C37.6054 13.0182 37.8804 12.9933 38.1678 12.9933C38.4709 12.9933 38.7646 13.0213 39.0458 13.0897L40.1457 11.8186H38.1585Z" fill="white"/>
<path d="M13.6808 17.6236C13.4058 17.6236 13.2621 17.4806 13.2621 17.2071V15.7123C13.2621 14.4505 12.4122 13.6145 11.1405 13.6145C10.7156 13.6145 10.3281 13.7078 9.99068 13.888C10.3781 13.5151 10.5625 12.9619 10.5625 12.2222V6.82715C10.2938 6.95146 9.99068 7.02294 9.66885 7.02294C9.34703 7.02294 9.04395 6.95457 8.77524 6.83336V12.0233C8.77524 12.4957 8.52215 12.7475 8.01285 12.7475H7.74726V13.7451H7.72852V19.3453H9.51575V16.3245C9.51575 15.7309 9.92507 15.3362 10.5437 15.3362C11.1061 15.3362 11.4717 15.7216 11.4717 16.3028V17.5987C11.4717 18.7641 12.0904 19.3453 13.3058 19.3453H13.8026V17.6205H13.6808V17.6236ZM9.51887 14.2299V14.2112C9.5345 14.2019 9.55324 14.1957 9.56887 14.1864C9.55324 14.2019 9.5345 14.2143 9.51887 14.2299Z" fill="white"/>
<path d="M21.1516 16.5451C21.1516 14.8762 22.3108 13.6113 23.8449 13.6113C24.4636 13.6113 24.9916 13.832 25.4134 14.1925V13.7419H27.2007V17.2008C27.2007 17.4743 27.3444 17.6172 27.6193 17.6172H27.7287V19.3421H27.2413C26.457 19.3421 25.9258 19.0997 25.6509 18.6273C25.2103 19.1556 24.5917 19.4726 23.8418 19.4726C22.3076 19.4726 21.1484 18.2108 21.1484 16.5389L21.1516 16.5451ZM25.4134 16.5451C25.4134 15.852 24.8948 15.3361 24.198 15.3361C23.5012 15.3361 22.995 15.852 22.995 16.5451C22.995 17.2381 23.5043 17.754 24.198 17.754C24.8916 17.754 25.4134 17.2381 25.4134 16.5451Z" fill="white"/>
<path d="M7.72852 13.7978H9.51575V14.2826C9.94694 13.8755 10.5 13.6672 11.1405 13.6672C12.4091 13.6672 13.2621 14.5032 13.2621 15.765V17.2598C13.2621 17.5333 13.4058 17.6763 13.6808 17.6763H13.8026V19.4011H13.3058C12.0904 19.4011 11.4717 18.8199 11.4717 17.6545V16.3586C11.4717 15.7774 11.1061 15.3921 10.5437 15.3921C9.92507 15.3921 9.51575 15.7867 9.51575 16.3803V19.4011H7.72852V13.8009V13.7978Z" fill="white"/>
<path d="M7.43359 14.8362V12.4898H8.01163C8.38658 12.4898 8.46157 12.3375 8.46157 12.0765V6.40479H10.8737V12.2723C10.8737 13.9971 9.95822 14.8331 8.07725 14.8331H7.43359V14.8362Z" fill="white"/>
<path d="M10.5612 6.71841V12.2751C10.5612 13.7917 9.79882 14.5251 8.0772 14.5251H7.746V12.8003H8.01159C8.52088 12.8003 8.77397 12.5486 8.77397 12.0762V6.7153H10.5612M11.1861 6.09375H8.14907V12.0762C8.14907 12.1197 8.14594 12.1508 8.13969 12.1663C8.11782 12.1726 8.0772 12.1788 8.01159 12.1788H7.12109V15.1467H8.0772C9.49574 15.1467 11.1861 14.6495 11.1861 12.2751V6.09686V6.09375Z" fill="#3B69D1"/>
<path d="M9.7382 5.69775C10.0318 5.67884 10.2538 5.52157 10.3871 5.30402L10.8186 5.59152C10.6044 5.92427 10.236 6.1533 9.7698 6.18332C8.9586 6.23555 8.36395 5.65058 8.31643 4.92041C8.26891 4.19023 8.78277 3.53389 9.59397 3.48166C10.0601 3.45165 10.4554 3.63517 10.7105 3.93037L10.3201 4.27447C10.1597 4.07582 9.91922 3.94832 9.62557 3.96723C9.14106 3.99843 8.8205 4.39668 8.85233 4.8859C8.88417 5.37512 9.25368 5.72895 9.7382 5.69775Z" fill="white"/>
<path fill-rule="evenodd" clip-rule="evenodd" d="M10.6654 4.7686L11.6428 5.41978L11.325 5.91348C11.0048 6.41072 10.4603 6.73775 9.80831 6.77973C8.64755 6.85447 7.78346 6.00013 7.71565 4.95828C7.64784 3.91643 8.39398 2.95842 9.55474 2.88368C10.2094 2.84152 10.7881 3.10169 11.1664 3.53948L11.5528 3.98654L10.6654 4.7686ZM9.98292 4.8123L9.85058 4.64837C9.82295 4.61414 9.79409 4.59291 9.76767 4.58063C9.74291 4.56912 9.71042 4.56066 9.66408 4.56365C9.58527 4.56872 9.53855 4.59938 9.50882 4.63517C9.47676 4.67378 9.44564 4.74264 9.4524 4.84646C9.45915 4.95028 9.49894 5.01457 9.53574 5.04875C9.56986 5.08043 9.62016 5.10484 9.69897 5.09976C9.74531 5.09678 9.77644 5.08423 9.79949 5.06964C9.82411 5.05407 9.84997 5.02932 9.87294 4.99183L9.98292 4.8123ZM10.207 3.57349C10.3937 3.6473 10.5556 3.76039 10.6846 3.9009C10.6933 3.91034 10.7018 3.9199 10.7102 3.92959L10.3197 4.27368C10.3181 4.27165 10.3164 4.26963 10.3148 4.26761C10.2979 4.24707 10.2802 4.2273 10.2616 4.2084C10.1036 4.04777 9.88525 3.9497 9.62521 3.96645C9.14069 3.99764 8.82014 4.3959 8.85197 4.88512C8.88381 5.37434 9.25332 5.72816 9.73784 5.69697C10.0017 5.67998 10.2077 5.55125 10.3435 5.36746C10.3567 5.34957 10.3693 5.33116 10.3811 5.31228C10.383 5.30928 10.3849 5.30626 10.3867 5.30323L10.8183 5.59074C10.8089 5.60535 10.7992 5.61977 10.7892 5.63397C10.6811 5.78748 10.5389 5.91668 10.3685 6.0114C10.1957 6.10749 9.99389 6.16808 9.76944 6.18253C8.95824 6.23476 8.36359 5.6498 8.31607 4.91962C8.26855 4.18945 8.78241 3.53311 9.59361 3.48088C9.81685 3.4665 10.0238 3.5011 10.207 3.57349Z" fill="#3B69D1"/>
<path d="M17.8499 5.57784L17.6836 3.02222L19.1812 2.92579L19.2092 3.3566L18.2329 3.41946L18.2723 4.02551L19.1018 3.9721L19.1299 4.4029L18.3003 4.45631L18.3431 5.11347L19.3195 5.05061L19.3475 5.48141L17.8499 5.57784Z" fill="white"/>
<path d="M15.3705 3.64504L15.3398 3.17407L17.4468 3.03842L17.4774 3.50938L16.6846 3.56043L16.8202 5.64508L16.299 5.67864L16.1633 3.59399L15.3705 3.64504Z" fill="white"/>
<path d="M13.6868 5.84639L13.5205 3.29077L14.306 3.2402C14.8713 3.2038 15.2388 3.46977 15.2696 3.94438C15.2898 4.25471 15.1543 4.4944 14.8979 4.6319L15.7754 5.71192L15.1624 5.75138L14.4088 4.76238L14.1408 4.77963L14.2081 5.81283L13.6868 5.84639ZM14.3634 3.66911L14.0698 3.68802L14.1128 4.34883L14.4064 4.32992C14.6267 4.31574 14.7468 4.17969 14.7333 3.97159C14.7207 3.77809 14.5836 3.65493 14.3634 3.66911Z" fill="white"/>
<path d="M10.8816 6.02782L11.6885 3.40933L12.3712 3.36522L13.5097 5.85803L12.9554 5.89384L12.6664 5.24526L11.6387 5.31166L11.4358 5.99202L10.8816 6.02782ZM11.7715 4.85946L12.4763 4.81393L12.0616 3.8765L11.7715 4.85946Z" fill="white"/>
</svg>
